<?xml version="1.0" standalone="no"?>
<!DOCTYPE svg PUBLIC "-//W3C//DTD SVG 20010904//EN"
 "http://www.w3.org/TR/2001/REC-SVG-20010904/DTD/svg10.dtd">
<svg version="1.0" xmlns="http://www.w3.org/2000/svg"
 width="121.000000pt" height="121.000000pt" viewBox="0 0 121.000000 121.000000"
 preserveAspectRatio="xMidYMid meet">
<metadata>
Created by potrace 1.11, written by Peter Selinger 2001-2013
</metadata>
<g transform="translate(0.000000,121.000000) scale(0.100000,-0.100000)"
fill="#000000" stroke="none">
<path d="M92 1035 c-44 -19 -52 -47 -53 -186 0 -105 2 -124 21 -154 12 -19 27
-35 32 -35 6 0 9 -2 6 -5 -3 -3 12 -24 34 -47 21 -22 37 -47 34 -54 -3 -8 0
-11 8 -8 13 5 53 -44 48 -59 -1 -4 2 -6 6 -5 12 4 72 -68 64 -77 -4 -5 -2 -5
4 -2 6 3 18 -3 27 -14 9 -10 15 -19 13 -19 -3 0 22 -27 53 -60 32 -33 66 -60
75 -60 9 0 15 -4 11 -9 -3 -5 -1 -13 5 -16 6 -4 9 -1 8 7 -2 10 20 13 95 15
54 1 101 4 104 7 4 3 12 1 20 -6 11 -9 12 -7 6 7 -5 14 -3 17 10 12 11 -4 14
-2 11 7 -3 8 -1 17 5 21 14 8 14 61 0 87 -9 18 -35 50 -74 92 -6 6 -80 92
-165 191 -85 99 -159 185 -165 191 -5 6 -35 40 -65 75 -85 98 -93 105 -120
112 -14 3 -40 -1 -58 -8z"/>
<path d="M1050 1038 c-26 -10 -26 -10 -115 -113 -33 -38 -64 -75 -70 -81 -5
-6 -30 -35 -54 -64 -25 -29 -50 -58 -56 -64 -51 -52 -59 -113 -21 -151 13 -13
21 -27 18 -30 -4 -3 2 -3 12 1 11 4 21 2 27 -7 6 -10 9 -10 9 -1 0 6 5 12 11
12 5 0 7 -4 4 -10 -3 -5 -1 -10 4 -10 6 0 11 4 11 8 0 5 14 9 30 10 17 0 30
-5 30 -11 0 -8 3 -8 8 -2 10 14 39 18 47 6 3 -6 20 -2 41 10 30 16 39 18 53 7
14 -11 14 -11 3 3 -11 15 -7 23 29 63 23 25 46 43 52 39 6 -3 7 -1 3 5 -4 7
-3 12 2 12 5 0 17 15 26 33 15 27 17 53 14 164 -3 144 -8 156 -64 172 -16 5
-40 4 -54 -1z"/>
<path d="M910 516 c0 -2 7 -7 16 -10 8 -3 12 -2 9 4 -6 10 -25 14 -25 6z"/>
<path d="M570 229 c0 -5 5 -7 10 -4 6 3 10 8 10 11 0 2 -4 4 -10 4 -5 0 -10
-5 -10 -11z"/>
</g>
</svg>
